<?xml version="1.0" encoding="utf-8"?>
<!-- Generator: Adobe Illustrator 16.0.0, SVG Export Plug-In . SVG Version: 6.00 Build 0)  -->
<!DOCTYPE svg PUBLIC "-//W3C//DTD SVG 1.1//EN" "http://www.w3.org/Graphics/SVG/1.1/DTD/svg11.dtd">
<svg version="1.1" id="Layer_1" xmlns="http://www.w3.org/2000/svg" xmlns:xlink="http://www.w3.org/1999/xlink" x="0px" y="0px"
	 width="387.174px" height="394.021px" viewBox="0 0 387.174 394.021" enable-background="new 0 0 387.174 394.021"
	 xml:space="preserve">
<g>
	<path fill="#0094DE" d="M225.292,381.59c0,4.569,0,8.175,0,12.097c-21.201,0-42.12,0-63.424,0c0-3.759,0-7.488,0-11.925
		c8.184,0,16.41,0,25.104,0c0.161-2.241,0.373-3.827,0.375-5.412c0.02-28.996-0.063-57.992,0.101-86.986
		c0.023-4.151-1.18-5.477-5.342-5.359c-9.658,0.271-19.328,0.072-28.993,0.103c-1.456,0.004-2.91,0.201-4.836,0.344
		c0,2.289,0,4.252,0,6.215c0,31.162,0.005,62.324-0.003,93.485c-0.002,8.321-1.544,9.85-9.922,9.859
		c-10.832,0.013-21.664,0.023-32.495-0.005c-7.282-0.021-9.017-1.787-9.022-9.243c-0.021-26.996-0.008-53.992-0.009-80.987
		c0-1.978,0-3.955,0-6.346c-19.5,0-38.554,0-58.185,0c0,31.962,0,63.854,0,96.163c-4.445,0-8.323,0-12.882,0
		c0-2.011,0-3.952,0-5.896c0-28.662-0.073-57.325,0.088-85.984c0.021-3.75-0.972-5.427-4.673-6.714
		c-13.298-4.621-20.91-16.048-21.078-31.327c-0.18-16.329-0.049-32.661-0.051-48.99c-0.001-13.664-0.002-27.329,0-40.993
		c0.004-21.193,6.326-30.342,26.537-37.724c-11.955-12.995-16.507-27.999-11.843-45.069c3.014-11.035,9.695-19.621,19.399-25.735
		c19.489-12.278,44.807-7.734,59.266,10.354c12.386,15.492,16.291,45.241-10.667,66.029c11.942,8.534,14.415,20.711,13.843,34.406
		c-0.506,12.119-0.106,24.276-0.106,36.896c8.745,0,17.109,0,26.177,0c0-7.384-0.176-14.827,0.052-22.262
		c0.208-6.801-0.119-13.828,1.491-20.334c4.379-17.689,16.026-28.669,33.666-33.271c1.226-0.32,2.433-0.715,3.758-1.106
		c-17.73-26.77-16.684-50.501,2.712-66.787c17.853-14.987,43.381-14.272,60.162,1.49c14.306,13.44,22.278,40.608,0.858,65.138
		c1.322,0.451,2.439,0.949,3.609,1.213c20.788,4.694,35.271,22.598,35.395,43.871c0.062,10.622,0.012,21.245,0.012,32.195
		c8.794,0,17.055,0,25.947,0c0.074-1.692,0.218-3.44,0.221-5.188c0.021-11.831,0.279-23.672-0.063-35.491
		c-0.363-12.501,3.426-22.916,14.078-30.912c-13.688-10.265-21.101-23.459-20.251-40.646c0.569-11.512,5.083-21.281,13.175-29.37
		c16.48-16.472,42.42-17.565,60.432-2.655c19.955,16.519,21.063,40.405,3.113,67.079c0.186,0.254,0.321,0.661,0.563,0.737
		c17.512,5.504,25.578,16.376,25.595,34.695c0.027,30.328,0.038,60.657-0.005,90.985c-0.021,17.008-7.229,27.592-23.146,33.451
		c-3.275,1.206-2.687,3.312-2.688,5.505c-0.026,28.829-0.019,57.657-0.019,86.484c0,1.818,0,3.639,0,5.9c-4.139,0-8.026,0-12.625,0
		c0-31.899,0-63.93,0-96.219c-19.762,0-38.82,0-58.414,0c0,2.286,0,4.243,0,6.2c0,26.994,0.007,53.99-0.004,80.986
		c-0.002,7.77-1.647,9.453-9.271,9.471c-10.999,0.023-21.997,0.026-32.996,0c-7.331-0.02-9.16-1.81-9.168-9.13
		c-0.025-31.661-0.098-63.322,0.084-94.983c0.025-4.504-1.076-6.063-5.787-5.91c-10.799,0.347-21.615,0.107-32.947,0.107
		c-0.133,2.179-0.332,3.944-0.334,5.714c-0.021,28.663,0.076,57.325-0.106,85.985c-0.028,4.488,1.092,6.188,5.796,5.9
		C211.972,381.293,218.446,381.59,225.292,381.59z M154.877,225.897c-2.724,0-4.533,0-6.343,0c-18.327,0-36.655,0.005-54.982-0.003
		c-8.02-0.004-9.626-1.587-9.639-9.622c-0.026-15.828,0.102-31.657-0.053-47.484c-0.122-12.443-7.993-20.126-20.462-20.233
		c-9.497-0.083-18.994-0.031-28.491-0.018c-14.818,0.025-22.373,7.609-22.381,22.513c-0.016,30.156-0.012,60.313-0.002,90.473
		c0.005,15.453,7.553,23.043,22.978,23.062c21.493,0.024,42.986-0.01,64.479,0.018c7.883,0.01,9.41,1.542,9.413,9.297
		c0.01,27.158-0.001,54.315,0.015,81.474c0.001,1.917,0.158,3.835,0.25,5.917c8.824,0,17.083,0,25.909,0c0-2.235,0-4.188,0-6.144
		c0-31.156-0.41-62.321,0.196-93.466c0.252-12.981-7.179-24.023-23.734-23.488c-16.979,0.548-33.985,0.141-50.979,0.107
		c-7.672-0.015-9.43-1.782-9.438-9.402c-0.018-18.66-0.006-37.321-0.006-55.981c0-1.603,0-3.204,0-4.81c4.598,0,8.486,0,12.845,0
		c0,19.326,0,38.241,0,57.722c2.261,0,4.048,0,5.835,0c13.996,0,27.991,0,41.986,0c12.663,0,25.325,0.019,37.988-0.021
		c2.033-0.008,4.635,0.69,4.623-2.819C154.864,237.519,154.877,232.055,154.877,225.897z M277.604,381.253c0-2.242,0-4.059,0-5.871
		c0-26.822-0.002-53.646,0.002-80.467c0-8.993,1.332-10.315,10.479-10.32c21.657-0.015,43.314,0.063,64.971-0.034
		c13.53-0.063,21.438-8.059,21.45-21.484c0.029-31.152,0.035-62.306-0.002-93.458c-0.016-12.957-7.922-20.972-20.737-21.063
		c-9.994-0.073-19.992-0.077-29.985,0.001c-12.666,0.1-20.487,7.969-20.531,20.657c-0.055,15.992,0.013,31.985-0.028,47.979
		c-0.017,6.688-2.007,8.688-8.563,8.697c-18.824,0.022-37.649,0.009-56.476,0.01c-1.787,0-3.572,0-5.527,0c0,6.913,0,13.247,0,19.54
		c30.201,0,59.935,0,90.188,0c0-19.302,0-38.227,0-57.36c4.401,0,8.272,0,12.555,0c0,2.023,0,3.66,0,5.296
		c0,18.491,0.011,36.983-0.004,55.478c-0.006,7.836-1.552,9.432-9.313,9.445c-17.659,0.035-35.316-0.088-52.977,0.057
		c-13.938,0.113-21.653,7.979-21.664,21.786c-0.021,31.985-0.012,63.972,0.002,95.957c0.003,1.614,0.149,3.229,0.246,5.157
		C260.312,381.253,268.563,381.253,277.604,381.253z M219.542,245.823c0-7.926-0.006-15.208,0.002-22.49
		c0.008-8.301,1.643-9.972,9.873-10.004c7.268-0.029,14.535-0.007,21.965-0.007c0-13.094,0.94-25.619-0.244-37.94
		c-1.398-14.547-14.994-25.941-29.299-26.835c-3.398-0.212-5.057,0.801-6.223,4.027c-4.911,13.599-10.1,27.096-15.119,40.655
		c-1.253,3.387-2.434,6.675-6.88,6.735c-4.487,0.063-5.733-3.252-6.984-6.609c-5.104-13.705-10.29-27.381-15.286-41.125
		c-1.012-2.784-2.392-3.813-5.438-3.694c-13.611,0.521-26.293,10.573-29.458,24.278c-1.068,4.628-1.002,9.561-1.091,14.358
		c-0.16,8.597-0.045,17.195-0.045,26.156c8.514,0,16.322-0.099,24.126,0.032c6.08,0.103,7.971,2.141,8.017,8.252
		c0.05,6.659,0.155,13.323-0.044,19.977c-0.098,3.28,1.046,4.337,4.299,4.288c10.82-0.153,21.643-0.058,32.465-0.057
		C209.12,245.823,214.062,245.823,219.542,245.823z M90.465,103.379c0.036-17.731-14.55-32.419-32.329-32.551
		c-17.86-0.132-32.735,14.769-32.672,32.726c0.062,17.617,14.94,32.375,32.594,32.323C75.759,135.827,90.429,121.116,90.465,103.379
		z M161.214,103.172c-0.067,17.938,14.248,32.545,32.049,32.702c17.761,0.156,32.475-14.311,32.664-32.119
		c0.191-18.125-14.381-32.964-32.334-32.928C175.7,70.864,161.282,85.268,161.214,103.172z M361.541,103.481
		c0.017-17.893-14.452-32.59-32.144-32.656c-17.992-0.064-32.776,14.645-32.789,32.623c-0.014,17.597,14.843,32.417,32.5,32.429
		C346.839,135.889,361.522,121.22,361.541,103.481z M244.897,258.699c-34.558,0-68.363,0-102.531,0
		c1.34,2.829,3.051,5.105,3.466,7.597c0.841,5.052,3.842,5.495,8.128,5.47c25.128-0.16,50.26-0.233,75.387,0.026
		c6.392,0.067,11.81,0.021,12.979-7.976C242.55,262.275,243.767,260.879,244.897,258.699z M203.623,148.89
		c-6.894,0-13.206,0-20.166,0c3.33,8.892,6.461,17.251,10.108,26.988C197.267,165.949,200.364,157.635,203.623,148.89z"/>
	<path fill="#0094DE" d="M96.827,44.896c-8.227,0-15.845,0.021-23.462-0.007c-6.916-0.025-8.777-1.924-8.793-8.949
		c-0.021-9.331-0.057-18.662,0.016-27.993c0.044-5.579,2.329-7.904,7.909-7.913c28.993-0.046,57.986-0.044,86.979-0.004
		c5.775,0.008,7.933,2.127,7.974,7.751c0.071,9.83,0.069,19.662,0,29.492c-0.039,5.535-2.03,7.548-7.508,7.6
		c-8.331,0.078-16.667-0.14-24.99,0.131c-2.296,0.074-4.877,0.973-6.765,2.293c-6.546,4.583-12.676,9.773-19.33,14.184
		c-2.317,1.535-6.392,2.802-8.397,1.758c-2.027-1.056-2.981-5.034-3.5-7.896C96.381,52.156,96.827,48.788,96.827,44.896z
		 M77.466,32.321c7.029,0,13.506,0,19.982,0.001c10.907,0.001,11.377,0.446,12.106,11.331c0.015,0.229,0.382,0.434,0.878,0.96
		c2.859-2.107,5.996-4.008,8.632-6.449c5.094-4.716,10.862-6.479,17.767-5.938c5.876,0.46,11.817,0.095,17.746,0.095
		c0-6.952,0-13.025,0-19.285c-25.851,0-51.374,0-77.111,0C77.466,19.439,77.466,25.521,77.466,32.321z"/>
	<path fill="#0094DE" d="M264.146,19.969c0,3.907,0,7.5,0,11.534c-3.857,0-7.711,0-11.598,0
		C249.426,20.495,251.56,18.236,264.146,19.969z"/>
	<path fill="#0094DE" d="M277.894,31.491c0-3.913,0-7.641,0-11.696c4.035,0,7.783,0,11.959,0c0,3.807,0,7.52,0,11.696
		C286.183,31.491,282.308,31.491,277.894,31.491z"/>
	<path fill="#0094DE" d="M238.188,31.636c-4.029,0-7.758,0-11.446,0c-1.53-13.188-1.986-13.149,11.446-11.412
		C238.188,23.792,238.188,27.406,238.188,31.636z"/>
	<path fill="#0094DE" d="M187.715,213.668c4.037,0,7.771,0,11.812,0c0,4.086,0,7.826,0,11.898c-3.994,0-7.725,0-11.812,0
		C187.715,221.726,187.715,217.987,187.715,213.668z"/>
</g>
</svg>
