<?xml version="1.0" encoding="utf-8"?>
<!-- Generator: Adobe Illustrator 16.0.0, SVG Export Plug-In . SVG Version: 6.00 Build 0)  -->
<!DOCTYPE svg PUBLIC "-//W3C//DTD SVG 1.1//EN" "http://www.w3.org/Graphics/SVG/1.1/DTD/svg11.dtd">
<svg version="1.1" id="Layer_1" xmlns="http://www.w3.org/2000/svg" xmlns:xlink="http://www.w3.org/1999/xlink" x="0px" y="0px"
	 width="400.482px" height="393.727px" viewBox="0 0 400.482 393.727" enable-background="new 0 0 400.482 393.727"
	 xml:space="preserve">
<g>
	<path fill="#0094DE" d="M7.027,230.381C7.026,179.223,7.021,128.066,7.05,76.908c0.001-1.802-0.248-4.054,0.688-5.281
		c1.06-1.39,3.337-2.54,5.063-2.512c1.376,0.023,3.233,1.719,3.942,3.139c0.836,1.675,0.898,3.852,0.899,5.811
		c0.013,99.151-0.019,198.305-0.045,297.456c-0.001,6.014,1.278,7.163,7.994,7.162c88.154-0.007,176.309-0.018,264.463-0.019
		c13.171,0,13.766,1.878,13.508-13.604c-0.106-6.497,0.133-13.001-0.063-19.494c-0.048-1.58-1.188-3.127-1.824-4.688
		c-1.396,0.692-2.98,1.161-4.152,2.131c-2.563,2.117-4.719,4.771-7.426,6.65c-1.74,1.208-4.663,2.51-6.155,1.817
		c-1.837-0.849-3.444-3.58-3.887-5.755c-0.787-3.88-0.688-7.95-0.849-11.945c-0.52-12.819-1.082-25.64-1.405-38.465
		c-0.073-2.935,0.173-6.12,1.245-8.8c7.174-17.901,14.713-35.655,21.874-53.562c1.449-3.624,2.513-7.688,2.527-11.555
		c0.176-43.326,0.114-86.652,0.108-129.979c-0.002-7.116-0.611-7.688-7.676-7.683c-20.163,0.021-40.326,0.032-60.49,0.03
		c-7.043-0.001-8.58-1.476-8.584-8.443c-0.015-20.329,0.017-40.659,0.052-60.989c0.013-6.482-1.059-7.67-7.429-7.671
		c-64.991-0.015-129.98-0.019-194.973-0.006c-5.735,0.001-6.874,1.271-6.854,7.191c0.032,9.665,0.063,19.33,0.062,28.995
		c0,1.491,0.341,3.384-0.412,4.391c-1.352,1.807-3.373,4.241-5.188,4.305c-2.738,0.095-5.108-1.772-5.082-5.457
		C7.093,35.417,7.021,20.752,7.035,6.087C7.039,1.3,9.839-0.031,14.176-0.021c27.331,0.07,54.66,0.034,81.99,0.034
		c44.327,0,88.653,0.025,132.98-0.052c3.32-0.006,5.674,0.771,8.181,3.302c23.911,24.158,48.021,48.125,72.111,72.104
		c3.487,3.472,5.069,7.256,5.022,12.42c-0.313,35.157-0.297,70.319-0.293,105.48c0,1.273,0.978,2.549,1.497,3.822
		c1.138-1.021,2.816-1.818,3.331-3.091c8.355-20.642,16.524-41.356,24.822-62.021c4.208-10.479,11.297-13.884,21.729-10.062
		c8.581,3.145,17.12,6.514,25.348,10.473c5.479,2.637,9.622,7.181,9.586,13.813c-0.01,2.023-1.891,3.998-2.736,6.066
		c-5.928,14.462-11.796,28.947-17.706,43.416c-4.524,11.08-9.049,22.161-13.646,33.211c-1.245,2.996-3.399,5.42-6.896,4.26
		c-3.744-1.242-4.229-4.673-2.988-7.884c3.837-9.921,7.949-19.733,11.964-29.587c0.627-1.539,1.286-3.064,1.943-4.591
		c3.152-7.313,3.728-6.809-4.328-10.472c-6.807-3.097-13.935-5.478-20.788-8.479c-3.73-1.637-5.805-0.884-7.333,2.912
		c-5.214,12.949-10.615,25.824-15.922,38.738c-7.39,17.984-14.745,35.983-22.141,53.968c-2.72,6.609-5.532,13.182-8.266,19.786
		c-1.715,4.146-0.164,6.408,3.982,7.949c7.475,2.776,14.838,5.878,22.118,9.135c3.877,1.731,6.063,0.394,7.493-3.073
		c5.893-14.297,11.744-28.61,17.591-42.926c1.383-3.388,2.646-6.821,4.034-10.205c1.362-3.315,3.792-5.436,7.404-4.13
		c3.765,1.361,3.916,4.489,2.532,7.877c-5.339,13.08-10.627,26.182-15.971,39.26c-2.517,6.154-5.619,12.121-7.535,18.451
		c-1.991,6.578-6.547,10.861-11.521,14.655c-6.068,4.633-7.979,10.188-7.667,17.687c0.594,14.142,0.271,28.321,0.337,42.484
		c0.028,6.417-2.489,9.008-8.819,9.008c-96.652,0.002-193.307,0.002-289.958,0.001c-7.113,0-8.632-1.555-8.633-8.866
		C7.027,333.366,7.028,281.875,7.027,230.381z M237.103,47.887c0.019,0,0.035,0,0.053,0c0,7.498-0.004,14.995,0.001,22.492
		c0.003,6.04,0.818,6.871,6.929,6.91c14.825,0.093,29.65,0.202,44.479,0.188c1.337-0.001,2.673-0.859,4.011-1.321
		c-0.671-1.601-0.938-3.602-2.072-4.741c-15.733-15.833-31.568-31.567-47.451-47.254c-1.198-1.184-2.946-1.81-4.438-2.694
		c-0.502,1.812-1.394,3.61-1.438,5.433C237.001,33.89,237.103,40.89,237.103,47.887z M388.677,145.289
		c-1.163-1.187-2.304-3.151-3.987-3.919c-7.407-3.371-14.966-6.417-22.485-9.538c-4.894-2.029-7.068,0.993-8.687,4.846
		c-2.38,5.669-4.671,11.376-7.054,17.044c-2.188,5.203-1.301,7.048,3.916,9.111c7.412,2.934,14.787,5.974,22.071,9.21
		c4.086,1.814,5.947-0.29,7.308-3.516c2.519-5.972,4.932-11.986,7.331-18.008C387.64,149.141,387.964,147.67,388.677,145.289z
		 M288.969,320.333c-0.018,0-0.034,0.003-0.054,0.004c0.245,3.814,0.337,7.65,0.816,11.438c0.183,1.443,0.99,3.608,1.999,3.934
		c1.116,0.356,3.063-0.705,4.174-1.688c5.355-4.729,10.551-9.645,15.812-14.482c2.886-2.65,2.799-4.856-0.734-6.455
		c-5.894-2.664-11.908-5.067-17.958-7.359c-3.188-1.207-4.732,0.259-4.549,3.646C288.675,313.02,288.808,316.677,288.969,320.333z"
		/>
	<path fill="#0094DE" d="M46.741,162.85c-0.001-6.825-0.056-13.648,0.015-20.475c0.063-6.113,1.55-7.633,7.776-7.666
		c11.983-0.063,23.977-0.231,35.949,0.146c5.103,0.16,8.584-1.648,11.452-5.549c0.962-1.311,2.117-3.001,3.487-3.357
		c1.859-0.483,4.636-0.566,5.854,0.503c1.197,1.05,1.8,4.133,1.137,5.66c-1.29,2.979-3.979,5.322-5.469,8.246
		c-1.519,2.98-3.121,6.313-3.233,9.543c-0.375,10.807-0.081,21.635-0.077,32.452c0.002,6.783-2.196,9.115-8.889,9.149
		c-13.316,0.07-26.632,0.09-39.948,0.009c-6.072-0.037-7.998-2.085-8.043-8.188C46.703,176.5,46.743,169.674,46.741,162.85z
		 M75.01,180.615c1.331,0,2.662-0.003,3.993,0c16.083,0.037,13.396,1.41,13.823-14.448c0.004-0.166,0.054-0.359-0.014-0.494
		c-0.55-1.107-1.122-2.206-1.688-3.309c-1.081,0.567-2.392,0.914-3.196,1.747c-1.723,1.782-2.892,4.231-4.849,5.612
		c-1.478,1.043-4.679,1.857-5.64,1.041c-4.654-3.954-9.093-8.267-12.948-12.988c-0.96-1.177-0.155-4.974,1.131-6.401
		c0.907-1.007,4.09-0.388,6.08,0.154c1.292,0.353,2.329,1.81,3.369,2.878c2.849,2.93,5.323,3.041,7.586-0.699
		c0.767-1.269,1.931-2.289,2.792-3.51c2.363-3.349,1.763-4.854-2.286-4.969c-6.814-0.188-13.641,0.006-20.458-0.104
		c-4.022-0.064-5.716,1.733-5.654,5.729c0.126,8.148,0.149,16.303,0.054,24.453c-0.046,3.85,1.661,5.441,5.427,5.342
		C66.689,180.538,70.851,180.624,75.01,180.615z"/>
	<path fill="#0094DE" d="M75.08,268.031c-7.165-0.007-14.33-0.095-21.493,0.024c-4.666,0.076-6.782-2.269-6.8-6.669
		c-0.055-14.328-0.105-28.657,0.02-42.984c0.046-5.287,2.347-7.292,7.953-7.317c11.996-0.058,23.998-0.215,35.985,0.113
		c5.019,0.14,8.729-1.187,11.39-5.481c0.681-1.098,1.688-2.396,2.804-2.729c1.827-0.542,4.617-1.201,5.636-0.29
		c1.391,1.247,2.533,4.305,1.94,5.902c-1.116,3.012-3.882,5.369-5.345,8.307c-1.564,3.143-3.294,6.604-3.424,9.986
		c-0.416,10.813-0.113,21.652-0.108,32.481c0.002,6.71-1.865,8.612-8.563,8.652C88.409,268.069,81.744,268.038,75.08,268.031z
		 M74.564,257.705c2.494,0,4.987-0.003,7.48,0c10.646,0.011,10.738,0.011,10.646-10.551c-0.022-2.656-0.848-5.308-1.303-7.961
		c-1.995,1.693-4.229,3.177-5.937,5.122c-4.104,4.679-7.116,4.984-11.662,0.634c-2.88-2.758-5.771-5.526-8.401-8.518
		c-2.129-2.419-3.446-5.905-0.246-7.758c1.929-1.116,5.436,0.008,8.051,0.755c1.418,0.404,2.292,2.646,3.721,3.112
		c1.354,0.441,3.841,0.213,4.553-0.708c2.01-2.598,3.362-5.701,4.975-8.604c-1.008-0.438-2.01-1.238-3.024-1.256
		c-6.979-0.122-13.96-0.043-20.938-0.107c-3.816-0.034-5.425,1.934-5.41,5.555c0.032,8.479,0.056,16.956,0.102,25.436
		c0.019,3.242,1.596,4.896,4.931,4.854C66.251,257.656,70.408,257.697,74.564,257.705z"/>
	<path fill="#0094DE" d="M75.4,288.198c6.817,0.003,13.637-0.062,20.453,0.021c5.421,0.063,7.737,2.191,7.773,7.469
		c0.095,13.968,0.078,27.937-0.026,41.904c-0.037,4.854-2.605,7.439-7.397,7.472c-14.135,0.09-28.27,0.044-42.403,0.024
		c-4.744-0.009-7.008-2.601-7.022-7.188c-0.046-14.135-0.1-28.27,0.001-42.402c0.041-5.7,1.738-7.215,7.672-7.283
		C61.431,288.135,68.416,288.197,75.4,288.198z M74.828,334.159c0,0.008,0,0.016,0,0.021c4.319,0,8.641,0.001,12.96-0.001
		c3.271-0.001,4.957-1.7,4.968-4.908c0.03-8.64-0.006-17.28-0.045-25.92c-0.016-3.284-1.718-4.792-5.006-4.769
		c-8.475,0.059-16.949,0.097-25.422,0.022c-3.592-0.031-5.159,1.628-5.15,5.123c0.022,8.474,0.011,16.947-0.021,25.421
		c-0.014,3.565,1.747,5.104,5.256,5.028C66.519,334.094,70.674,334.159,74.828,334.159z"/>
	<path fill="#0094DE" d="M200.968,154.302c-19.644,0-39.287,0-58.932,0c-0.499,0-1.002,0.026-1.498-0.019
		c-3.521-0.319-7.239-1.352-7.195-5.354c0.047-4.126,3.646-5.617,7.485-5.626c16.646-0.036,33.295,0.004,49.942,0.005
		c22.975,0,45.947-0.015,68.921-0.006c1.326,0,3.042-0.354,3.897,0.317c1.916,1.506,4.429,3.408,4.722,5.437
		c0.205,1.423-2.711,3.492-4.517,4.915c-0.756,0.596-2.243,0.341-3.397,0.342c-19.811,0.017-39.619,0.012-59.431,0.012
		C200.968,154.318,200.968,154.31,200.968,154.302z"/>
	<path fill="#0094DE" d="M200.897,307.958c-19.471,0.004-38.938,0.005-58.408,0.003c-5.571-0.003-9.261-2.138-9.317-5.38
		c-0.056-3.189,3.671-5.415,9.303-5.418c39.104-0.02,78.21-0.017,117.315-0.02c0.665,0,1.341-0.058,1.995,0.032
		c3.217,0.439,6.808,0.933,6.758,5.106c-0.052,4.392-3.233,5.696-7.24,5.688C241.167,307.936,221.032,307.956,200.897,307.958z"/>
	<path fill="#0094DE" d="M201.45,220.543c19.301-0.002,38.602-0.006,57.901,0.006c1.659,0.001,3.731-0.484,4.888,0.311
		c1.79,1.232,3.926,3.3,4.072,5.156c0.113,1.439-2.381,3.425-4.116,4.55c-1.084,0.702-2.911,0.317-4.404,0.317
		c-38.936,0.01-77.868,0.007-116.802-0.009c-1.66-0.001-3.661,0.422-4.901-0.336c-1.912-1.169-4.595-3.219-4.561-4.843
		c0.037-1.692,2.687-3.688,4.615-4.854c1.24-0.751,3.243-0.288,4.904-0.289C162.516,220.541,181.983,220.544,201.45,220.543z"/>
	<path fill="#0094DE" d="M188.379,182.513c-15.146-0.003-30.289,0.006-45.435-0.016c-1.656-0.002-3.681,0.397-4.887-0.386
		c-1.922-1.248-4.485-3.291-4.553-5.078c-0.058-1.603,2.672-3.666,4.589-4.851c1.243-0.768,3.236-0.398,4.895-0.399
		c30.621-0.02,61.243-0.039,91.865,0.015c3.897,0.008,8.58-0.646,9.272,5.017c0.457,3.739-3.053,5.703-9.315,5.702
		C219.333,182.513,203.856,182.516,188.379,182.513z"/>
	<path fill="#0094DE" d="M192.104,325.521c16.154,0.004,32.311,0.004,48.464,0.004c0.667,0,1.333-0.003,1.999,0.004
		c3.719,0.033,7.704,0.58,7.579,5.184c-0.117,4.396-3.997,5.146-7.758,5.145c-33.81-0.004-67.617,0.015-101.426-0.058
		c-1.75-0.004-3.729-0.385-5.201-1.263c-3.694-2.205-3.423-6.432,0.538-8.14c1.748-0.754,3.882-0.836,5.842-0.844
		C158.794,325.491,175.449,325.518,192.104,325.521z"/>
	<path fill="#0094DE" d="M164.896,74.564c-10.639,0.004-21.274,0.017-31.913-0.009c-1.656-0.004-3.637,0.357-4.894-0.399
		c-1.805-1.091-4.435-3.229-4.257-4.604c0.246-1.904,2.558-3.814,4.404-5.133c1.021-0.729,2.899-0.31,4.394-0.311
		c21.606-0.012,43.216-0.008,64.822-0.008c0.499,0,0.998-0.014,1.496,0.001c3.706,0.103,7.56,0.683,7.515,5.311
		c-0.047,4.675-4.024,5.109-7.662,5.128C187.5,74.595,176.198,74.561,164.896,74.564z"/>
	<path fill="#0094DE" d="M157.215,259.08c-5.316-0.004-10.635,0.05-15.95-0.021c-3.662-0.05-7.22-0.751-8.033-5.047
		c-0.563-2.977,3.34-5.692,7.904-5.711c10.801-0.046,21.602,0.029,32.401-0.027c3.979-0.021,7.337,1.249,7.308,5.574
		c-0.027,4.166-3.603,5.164-7.18,5.215C168.183,259.14,162.699,259.083,157.215,259.08z"/>
</g>
</svg>
