<?xml version="1.0" encoding="utf-8"?>
<!-- Generator: Adobe Illustrator 16.0.0, SVG Export Plug-In . SVG Version: 6.00 Build 0)  -->
<!DOCTYPE svg PUBLIC "-//W3C//DTD SVG 1.1//EN" "http://www.w3.org/Graphics/SVG/1.1/DTD/svg11.dtd">
<svg version="1.1" id="Layer_1" xmlns="http://www.w3.org/2000/svg" xmlns:xlink="http://www.w3.org/1999/xlink" x="0px" y="0px"
	 width="394.871px" height="388.619px" viewBox="0 0 394.871 388.619" enable-background="new 0 0 394.871 388.619"
	 xml:space="preserve">
<g>
	<path fill="#546A7D" d="M276.02,86.46c-12.699,0-24.99,0-37.707,0c-0.096-1.772-0.254-3.377-0.258-4.979
		c-0.022-10.498,0.021-20.996-0.023-31.494c-0.034-7.844-3.426-11.254-11.289-11.262c-30.329-0.031-60.657-0.014-90.985-0.015
		c-18.164,0-36.328-0.006-54.491,0.013c-1.564,0.001-3.129,0.157-6.153,0.32c2.814,1.554,4.324,2.432,5.872,3.233
		c25.419,13.163,50.736,26.531,76.321,39.364c9.861,4.945,13.958,12.087,13.9,23.051c-0.27,51.324-0.12,102.648-0.12,153.975
		c0,2.137,0,4.271,0,6.893c2.049,0.139,3.636,0.337,5.225,0.339c16.497,0.021,32.996,0.038,49.491,0.004
		c8.998-0.02,12.234-3.343,12.238-12.465c0.011-22.829,0.004-45.659,0.004-68.488c0-1.794,0-3.589,0-5.673
		c12.879,0,25.301,0,38.451,0c0,1.812,0,3.586,0,5.361c0,32.327,0.014,64.655-0.006,96.983c-0.011,15.531-7.399,22.814-23.099,22.82
		c-25.328,0.011-50.658,0.004-75.988,0.004c-1.964,0-3.928,0-6.568,0c0,2.295,0,4.069,0,5.844c0,22.164,0.02,44.326-0.01,66.49
		c-0.014,10.703-6.624,14.697-16.184,9.718c-47.679-24.832-95.332-49.716-143.01-74.551c-7.884-4.105-11.639-10.549-11.637-19.381
		c0.017-90.485,0-180.973,0.021-271.457C0.019,7.92,7.976,0.021,21.25,0.017c77.987-0.022,155.975-0.021,233.963-0.001
		c12.651,0.003,20.98,7.367,21.165,19.617c0.323,21.491,0.09,42.991,0.069,64.487C276.447,84.758,276.221,85.395,276.02,86.46z"/>
	<path fill="#546A7D" d="M326.717,152.755c-2.76,0-4.521,0-6.281,0c-33.981,0-67.965,0.055-101.946-0.024
		c-15.707-0.037-25.341-14.435-19.716-29.196c3.261-8.555,9.926-12.825,20.426-12.838c33.482-0.039,66.965-0.016,100.447-0.017
		c1.934,0,3.865,0,7.158,0c-1.94-2.175-2.918-3.379-4.007-4.471c-7.767-7.78-15.552-15.545-23.341-23.303
		c-8.473-8.436-9.17-20.982-1.58-28.66c7.777-7.867,19.963-7.575,28.561,1.022c20.731,20.729,41.396,41.529,61.951,62.433
		c8.744,8.892,8.617,19.843-0.229,28.811c-20.473,20.752-41.023,41.428-61.627,62.051c-8.508,8.515-20.182,8.949-28.123,1.316
		c-7.814-7.512-7.838-20.226,0.338-28.78c7.823-8.188,16.01-16.026,24.021-24.035C323.893,155.938,324.923,154.719,326.717,152.755z
		"/>
</g>
</svg>
