<?xml version="1.0" encoding="utf-8"?>
<!-- Generator: Adobe Illustrator 16.0.0, SVG Export Plug-In . SVG Version: 6.00 Build 0)  -->
<!DOCTYPE svg PUBLIC "-//W3C//DTD SVG 1.1//EN" "http://www.w3.org/Graphics/SVG/1.1/DTD/svg11.dtd">
<svg version="1.1" id="Layer_1" xmlns="http://www.w3.org/2000/svg" xmlns:xlink="http://www.w3.org/1999/xlink" x="0px" y="0px"
	 width="531.313px" height="284.357px" viewBox="0 0 531.313 284.357" enable-background="new 0 0 531.313 284.357"
	 xml:space="preserve">
<g>
	<path fill="#0094DE" d="M140.979,241.091c13.176-28.145,26.402-56.396,39.629-84.653c23.656-50.557,47.348-101.095,70.9-151.693
		c1.629-3.5,3.514-4.968,7.486-4.682c5.635,0.4,11.342,0.381,16.98,0.01c4.144-0.271,5.379,1.33,4.799,5.089
		c-0.051,0.326-0.008,0.666-0.008,0.999c0,90.647-0.024,181.298,0.09,271.946c0.004,4.307-0.72,6.188-5.563,5.813
		c-6.297-0.479-12.685-0.474-18.979,0c-4.629,0.353-4.537-2.012-4.533-5.296c0.051-65.819,0.037-131.642,0.037-197.462
		c0-4.138,0-8.273,0-12.988c-2.111,1.188-2.389,3.055-3.086,4.525c-32.594,68.938-65.184,137.879-97.664,206.87
		c-1.461,3.104-3.229,3.86-6.578,4.436c-10.18,1.739-14.437-3.058-18.531-11.839c-31.053-66.536-62.697-132.796-94.16-199.14
		c-0.559-1.183-1.164-2.341-2.672-3.537c0,1.665,0,3.331,0,4.996c0,67.817-0.059,135.64,0.119,203.46
		c0.012,4.813-1.092,6.348-5.965,5.968c-5.965-0.465-12.006-0.367-17.982-0.021c-4.014,0.229-5.336-0.703-5.283-5.053
		c0.26-20.991,0.117-41.988,0.117-62.983C0.129,145.869,0.192,75.881,0,5.897c-0.014-4.991,1.391-6.209,6.068-5.834
		c5.299,0.424,10.676,0.366,15.98,0.006c3.771-0.258,5.516,1.178,7.072,4.506c28.936,61.842,57.998,123.624,87.037,185.417
		c7.561,16.091,15.133,32.179,22.723,48.257C139.366,239.27,139.407,240.612,140.979,241.091z"/>
	<path fill="#0094DE" d="M531.313,283.802c-12.977,0-24.953-0.063-36.932,0.056c-2.379,0.021-3.547-1.339-4.93-2.793
		c-38.885-40.915-77.783-81.813-116.689-122.708c-0.207-0.22-0.516-0.343-1.01-0.659c-0.924,1.742-0.434,3.573-0.438,5.282
		c-0.033,38.652-0.082,77.313,0.059,115.971c0.014,3.788-0.754,5.178-4.818,4.956c-6.813-0.372-13.664-0.273-20.484-0.025
		c-3.131,0.113-3.891-0.828-3.852-3.891c0.174-13.327,0.074-26.658,0.074-39.988c0-78.146,0.035-156.295-0.094-234.438
		c-0.01-4.198,0.707-5.856,5.32-5.517c6.297,0.473,12.67,0.373,18.979,0.023c3.98-0.22,4.889,1.072,4.873,4.93
		c-0.143,40.49-0.088,80.979-0.088,121.472c0,1.604,0,3.214,0,6.076c8.676-9.303,16.574-17.714,24.412-26.184
		C427.573,71.91,459.43,37.437,491.297,2.969c1.23-1.33,2.256-2.829,4.439-2.817c11.469,0.052,22.938,0.021,34.359,0.021
		c0.559,2.272-1.176,2.896-2.105,3.876c-43.82,45.87-87.639,91.747-131.605,137.479c-2.822,2.938-0.916,4.099,0.74,5.784
		c17.059,17.336,34.131,34.646,51.197,51.975c27.002,27.414,54.004,54.831,81.002,82.25
		C529.776,281.986,530.168,282.488,531.313,283.802z"/>
</g>
</svg>
