<?xml version="1.0" encoding="utf-8"?>
<!-- Generator: Adobe Illustrator 16.0.0, SVG Export Plug-In . SVG Version: 6.00 Build 0)  -->
<!DOCTYPE svg PUBLIC "-//W3C//DTD SVG 1.1//EN" "http://www.w3.org/Graphics/SVG/1.1/DTD/svg11.dtd">
<svg version="1.1" id="Layer_1" xmlns="http://www.w3.org/2000/svg" xmlns:xlink="http://www.w3.org/1999/xlink" x="0px" y="0px"
	 width="125.639px" height="246.887px" viewBox="0 0 125.639 246.887" enable-background="new 0 0 125.639 246.887"
	 xml:space="preserve">
<g>
	<path fill="#0094DE" d="M66.936,125.31c0,1.596,0,2.838,0,4.084c0,36.83,0,73.658-0.002,110.49c0,1.043,0.075,2.1-0.051,3.127
		c-0.297,2.391-1.707,3.916-4.113,3.875c-2.383-0.039-3.83-1.473-3.937-3.979c-0.049-1.146-0.035-2.295-0.035-3.441
		c0-36.727-0.034-73.451,0.058-110.178c0.007-3.041-0.632-4.1-3.974-4.527C21.449,120.48-2.353,91.085,0.186,57.548
		C2.423,28.006,26.105,3.61,55.671,0.388c37.325-4.065,69.424,24.347,69.962,61.926c0.453,31.726-24.642,59.71-56.2,62.678
		C68.727,125.058,68.025,125.17,66.936,125.31z M62.725,117.217c30.128,0.058,54.552-24.257,54.634-54.389
		c0.084-30.07-24.238-54.607-54.316-54.797C33.148,7.842,8.272,32.472,8.175,62.355C8.076,92.594,32.501,117.16,62.725,117.217z"/>
	<path fill="#0094DE" d="M58.42,45.915c0,9.323-7.345,16.625-16.673,16.575c-9.256-0.051-16.616-7.492-16.568-16.754
		c0.046-9.022,7.496-16.411,16.589-16.452C51.026,29.241,58.419,36.624,58.42,45.915z M50.27,46.016
		c0.048-4.696-3.763-8.605-8.401-8.621c-4.598-0.013-8.574,3.971-8.548,8.559c0.028,4.51,3.798,8.31,8.334,8.399
		C46.397,54.45,50.221,50.748,50.27,46.016z"/>
</g>
</svg>
