<?xml version="1.0" encoding="utf-8"?>
<!-- Generator: Adobe Illustrator 16.0.0, SVG Export Plug-In . SVG Version: 6.00 Build 0)  -->
<!DOCTYPE svg PUBLIC "-//W3C//DTD SVG 1.1//EN" "http://www.w3.org/Graphics/SVG/1.1/DTD/svg11.dtd">
<svg version="1.1" id="Layer_1" xmlns="http://www.w3.org/2000/svg" xmlns:xlink="http://www.w3.org/1999/xlink" x="0px" y="0px"
	 width="125.639px" height="246.886px" viewBox="31.416 61.734 125.639 246.886"
	 enable-background="new 31.416 61.734 125.639 246.886" xml:space="preserve">
<g>
	<path fill="#546A7D" d="M98.351,187.044c0,1.594,0,2.838,0,4.084c0,36.83,0,73.658-0.002,110.489c0,1.043,0.075,2.099-0.051,3.127
		c-0.297,2.39-1.707,3.917-4.113,3.875c-2.383-0.039-3.83-1.473-3.937-3.979c-0.049-1.146-0.035-2.295-0.035-3.441
		c0-36.727-0.034-73.451,0.058-110.177c0.007-3.041-0.632-4.1-3.974-4.527c-33.433-4.282-57.235-33.677-54.696-67.214
		c2.237-29.542,25.919-53.939,55.485-57.16c37.325-4.066,69.424,24.346,69.962,61.926c0.453,31.725-24.642,59.71-56.2,62.677
		C100.142,186.791,99.44,186.903,98.351,187.044z M94.14,178.95c30.128,0.058,54.552-24.257,54.634-54.389
		c0.084-30.07-24.239-54.607-54.317-54.797c-29.894-0.189-54.77,24.441-54.867,54.324C39.491,154.327,63.916,178.893,94.14,178.95z"
		/>
	<path fill="#546A7D" d="M89.835,107.648c0,9.323-7.345,16.625-16.673,16.575c-9.256-0.05-16.616-7.492-16.568-16.754
		c0.046-9.022,7.496-16.411,16.589-16.452C82.441,90.974,89.834,98.357,89.835,107.648z M81.685,107.749
		c0.048-4.697-3.763-8.606-8.402-8.621c-4.597-0.013-8.574,3.97-8.547,8.558c0.028,4.51,3.797,8.31,8.334,8.4
		C77.812,116.183,81.636,112.481,81.685,107.749z"/>
</g>
</svg>
