<?xml version="1.0" encoding="utf-8"?>
<!-- Generator: Adobe Illustrator 16.0.0, SVG Export Plug-In . SVG Version: 6.00 Build 0)  -->
<!DOCTYPE svg PUBLIC "-//W3C//DTD SVG 1.1//EN" "http://www.w3.org/Graphics/SVG/1.1/DTD/svg11.dtd">
<svg version="1.1" id="Layer_1" xmlns="http://www.w3.org/2000/svg" xmlns:xlink="http://www.w3.org/1999/xlink" x="0px" y="0px"
	 width="412.707px" height="392.875px" viewBox="0 0 412.707 392.875" enable-background="new 0 0 412.707 392.875"
	 xml:space="preserve">
<g>
	<path fill="#546A7D" d="M205.688,392.844c-62.661,0-125.322,0.059-187.981-0.138c-4.108-0.013-8.631-1.222-12.21-3.22
		c-4.523-2.525-5.59-7.47-5.49-12.63c0.794-40.688,16.309-74.79,46.53-101.852c26.39-23.63,57.645-35.114,93.158-35.035
		c44.162,0.099,88.325-0.018,132.487,0.032c69.269,0.079,124.817,45.729,138.233,113.783c1.441,7.313,1.931,14.865,2.266,22.333
		c0.475,10.589-5.41,16.598-16.012,16.688c-14.498,0.125-28.998,0.035-43.496,0.035
		C304.009,392.844,254.849,392.844,205.688,392.844z M29.27,363.636c118.413,0,235.714,0,353.532,0
		c-0.575-3.26-0.997-6.026-1.559-8.765c-9.646-47.122-52.308-84.534-100.303-85.636c-49.121-1.127-98.3-1.022-147.429-0.119
		c-44.65,0.821-84.098,31.022-98.62,73.526C32.608,349.33,31.205,356.317,29.27,363.636z"/>
	<path fill="#546A7D" d="M205.877,0c61.43,0.186,110.371,49.386,110.134,110.719c-0.23,60.652-50.008,109.703-111.057,109.44
		c-60.9-0.262-109.901-49.989-109.738-111.364C95.375,48.922,145.322-0.182,205.877,0z M205.408,191.339
		c44.861,0.063,81.669-36.378,81.798-80.98c0.129-44.948-36.543-81.941-81.36-82.072c-44.587-0.131-81.664,36.646-81.803,81.136
		C123.901,154.452,160.479,191.277,205.408,191.339z"/>
</g>
</svg>
