<?xml version="1.0" encoding="utf-8"?>
<!-- Generator: Adobe Illustrator 16.0.0, SVG Export Plug-In . SVG Version: 6.00 Build 0)  -->
<!DOCTYPE svg PUBLIC "-//W3C//DTD SVG 1.1//EN" "http://www.w3.org/Graphics/SVG/1.1/DTD/svg11.dtd">
<svg version="1.1" id="Layer_1" xmlns="http://www.w3.org/2000/svg" xmlns:xlink="http://www.w3.org/1999/xlink" x="0px" y="0px"
	 width="329.348px" height="393.721px" viewBox="0 0 329.348 393.721" enable-background="new 0 0 329.348 393.721"
	 xml:space="preserve">
<g>
	<path fill="#546A7D" d="M164.287,393.721c-50.819,0-101.64,0.002-152.459-0.002c-9.721-0.001-11.821-2.054-11.822-11.679
		c-0.008-123.468-0.008-246.936,0-370.401C0.007,2.136,2.029,0.105,11.335,0.104C89.481,0.103,167.627,0.15,245.772,0
		c5.255-0.012,8.642,1.748,11.748,5.853c22.521,29.748,45.18,59.394,67.902,88.987c2.669,3.476,3.93,6.979,3.926,11.422
		c-0.102,91.809-0.075,183.618-0.077,275.427c0,9.866-2.159,12.029-12.024,12.03C266.259,393.723,215.273,393.721,164.287,393.721z
		 M15.873,16.224c-0.1,1.879-0.258,3.504-0.258,5.129c-0.013,116.979,0.016,233.96-0.108,350.939
		c-0.005,4.647,1.362,5.816,5.902,5.812c95.482-0.124,190.967-0.093,286.45-0.104c1.768,0,3.534-0.157,5.227-0.238
		c0-89.276,0-177.988,0-266.969c-20.568,0-40.726,0.019-60.881-0.01c-8.271-0.012-10.815-2.532-10.831-10.664
		c-0.05-25.995-0.077-51.99-0.112-77.985c-0.002-1.936,0-3.869,0-5.908C165.74,16.224,90.99,16.224,15.873,16.224z M258.223,33.173
		c-0.297,0.184-0.594,0.368-0.89,0.552c0,20.218,0,40.436,0,60.875c15.861,0,31.323,0,47.818,0
		C289.123,73.617,273.672,53.395,258.223,33.173z"/>
	<path fill="#546A7D" d="M165.219,189.104c34.804,0,69.607-0.07,104.41,0.134c2.839,0.018,6.434,1.168,8.341,3.107
		c4.016,4.082,1.118,11.076-4.715,12.308c-1.763,0.371-3.646,0.241-5.472,0.242c-68.607,0.01-137.217,0.008-205.824,0.008
		c-1.166,0-2.335,0.057-3.496-0.021c-5.183-0.341-8.319-3.456-8.233-8.129c0.086-4.688,3.22-7.604,8.58-7.622
		c17.818-0.063,35.637-0.026,53.454-0.027C129.917,189.103,147.568,189.104,165.219,189.104z"/>
	<path fill="#546A7D" d="M165.176,139.872c34.133-0.001,68.266-0.003,102.397,0.006c1.828,0,3.687-0.094,5.482,0.17
		c3.978,0.585,6.229,3.026,6.508,7.021c0.276,3.947-1.448,6.858-5.332,7.974c-1.877,0.538-3.94,0.571-5.922,0.571
		c-68.93,0.027-137.86,0.027-206.792-0.001c-1.979,0-4.045-0.045-5.923-0.583c-3.888-1.113-5.595-4.022-5.311-7.974
		c0.286-3.996,2.521-6.436,6.511-7c1.801-0.255,3.654-0.177,5.483-0.178C96.579,139.869,130.878,139.872,165.176,139.872z"/>
	<path fill="#546A7D" d="M127.629,254.041c-21.972,0-43.944,0.002-65.917-0.005c-1.663-0.001-3.37,0.151-4.981-0.156
		c-3.613-0.693-5.983-2.835-6.413-6.641c-0.442-3.93,1.06-6.95,4.862-8.28c1.822-0.639,3.903-0.73,5.868-0.732
		c44.444-0.038,88.888-0.031,133.332-0.021c1.495,0,3.049-0.134,4.475,0.214c4.209,1.021,6.736,3.647,6.473,8.174
		c-0.262,4.472-2.859,7.025-7.289,7.353c-3.313,0.245-6.654,0.094-9.983,0.095C167.913,254.043,147.771,254.041,127.629,254.041z"/>
	<path fill="#546A7D" d="M127.904,106.193c-22.8,0-45.601-0.026-68.4,0.028c-3.569,0.009-6.627-0.702-8.438-4.093
		c-2.274-4.264-0.305-9.545,4.319-10.986c2.012-0.626,4.257-0.688,6.396-0.689c43.937-0.037,87.872-0.028,131.809-0.027
		c0.999,0,2-0.036,2.995,0.021c5.617,0.332,8.88,3.359,8.79,8.126c-0.092,4.849-3.249,7.595-9.071,7.604
		C173.504,106.217,150.705,106.193,127.904,106.193z"/>
	<path fill="#546A7D" d="M198.911,324.852c12.457-11.043,24.396-21.624,36.33-32.21c9.959-8.833,19.899-17.687,29.873-26.505
		c4.68-4.139,9.536-4.349,12.701-0.634c3.163,3.712,2.307,8.393-2.376,12.553c-23.509,20.892-47.022,41.775-70.555,62.643
		c-6.084,5.396-10.112,5.019-14.904-1.38c-7.38-9.854-14.733-19.726-22.055-29.623c-3.69-4.992-3.481-9.921,0.417-12.766
		c4.073-2.972,8.335-1.813,12.246,3.399C186.571,308.3,192.52,316.295,198.911,324.852z"/>
</g>
</svg>
