<?xml version="1.0" encoding="utf-8"?>
<!-- Generator: Adobe Illustrator 16.0.0, SVG Export Plug-In . SVG Version: 6.00 Build 0)  -->
<!DOCTYPE svg PUBLIC "-//W3C//DTD SVG 1.1//EN" "http://www.w3.org/Graphics/SVG/1.1/DTD/svg11.dtd">
<svg version="1.1" id="Layer_1" xmlns="http://www.w3.org/2000/svg" xmlns:xlink="http://www.w3.org/1999/xlink" x="0px" y="0px"
	 width="439.516px" height="392.672px" viewBox="0 0 439.516 392.672" enable-background="new 0 0 439.516 392.672"
	 xml:space="preserve">
<g>
	<path fill="#0094DE" d="M111.937,96.581c12.239,2.58,24.243,5.094,36.239,7.642c27.007,5.735,54.003,11.523,81.031,17.161
		c2.005,0.419,4.318,0.162,6.329-0.379c15.254-4.107,30.461-8.389,45.696-12.566c14.451-3.962,26.009,1.799,28.65,16.474
		c2.171,12.049,8.201,16.024,19.585,18.096c30.099,5.472,59.933,12.392,89.867,18.751c0.929,0.196,1.819,0.561,3.032,0.939
		c-4.157,19.726-8.26,39.228-12.383,58.724c-2.101,9.926-4.166,19.857-6.379,29.761c-2.937,13.144-13.24,19.799-26.416,17.104
		c-8.146-1.667-16.264-3.481-24.4-5.19c-1.243-0.261-2.532-0.309-4.403-0.524c2.535,9.295,4.941,18.054,7.313,26.819
		c3.842,14.193-2.018,24.73-16.197,28.684c-87.943,24.504-175.9,48.975-263.867,73.399c-14.419,4.004-25.022-2.124-28.993-16.469
		C31.517,320.35,16.391,265.698,1.272,211.044c-4.094-14.799,1.776-25.267,16.44-29.347c25.152-6.996,50.279-14.092,75.486-20.886
		c3.96-1.065,5.624-2.979,6.399-6.848c3.565-17.773,7.368-35.5,11.11-53.239C110.974,99.462,111.439,98.239,111.937,96.581z
		 M36.706,274.026c0.359,1.761,0.523,2.905,0.83,4.015c8.481,30.618,16.965,61.239,25.482,91.852
		c1.678,6.03,2.704,6.559,8.959,4.816c87.347-24.295,174.692-48.599,262.037-72.905c6.014-1.674,6.598-2.738,4.896-8.923
		c-5.783-21.012-11.568-42.021-17.383-63.025c-2.961-10.704-5.979-21.392-9.088-32.497
		C220.369,222.957,128.754,248.431,36.706,274.026z M26.208,237.098c92.31-25.668,183.878-51.13,275.999-76.744
		c-2.825-10.198-5.504-19.938-8.223-29.665c-1.877-6.717-2.772-7.22-9.467-5.36c-56.072,15.564-112.146,31.14-168.219,46.712
		c-31.08,8.632-62.158,17.268-93.237,25.896c-3.492,0.97-7.103,1.851-5.734,6.854C20.218,215.353,23.132,225.911,26.208,237.098z
		 M395.912,187.358c0.052-6.413-2.434-9.634-7.484-10.758c-9.722-2.161-19.474-4.188-29.229-6.179
		c-6.957-1.419-10.847,1.033-12.378,7.916c-2.127,9.559-4.131,19.146-6.082,28.742c-1.301,6.388,1.146,10.385,7.474,11.842
		c10.026,2.311,20.097,4.441,30.175,6.52c4.762,0.98,9.19-1.123,10.314-5.642C391.499,208.536,393.771,197.14,395.912,187.358z"/>
	<path fill="#0094DE" d="M434.193,115.352C330.294,93.323,227.057,71.433,123.239,49.421c2.049-12.093,3.347-23.855,6.177-35.237
		c2.561-10.302,13.317-15.938,24.007-13.694c53.212,11.182,106.404,22.455,159.601,33.718
		c35.463,7.508,70.908,15.096,106.384,22.549c15.834,3.327,22.219,12.589,19.504,28.412
		C437.225,94.981,435.824,104.844,434.193,115.352z"/>
	<path fill="#0094DE" d="M101.622,296.637c6.177-0.085,9.106,2.122,10.298,6.229c2.961,10.211,5.874,20.441,8.492,30.744
		c1.458,5.736-0.766,9.477-6.329,11.119c-10.036,2.968-20.115,5.802-30.229,8.493c-5.449,1.451-9.536-0.91-11.132-6.426
		c-2.956-10.214-5.71-20.484-8.487-30.748c-1.154-4.268,0.234-8.311,4.159-9.616C79.876,302.611,91.608,299.535,101.622,296.637z"/>
</g>
</svg>
