<?xml version="1.0" encoding="utf-8"?>
<!-- Generator: Adobe Illustrator 16.0.0, SVG Export Plug-In . SVG Version: 6.00 Build 0)  -->
<!DOCTYPE svg PUBLIC "-//W3C//DTD SVG 1.1//EN" "http://www.w3.org/Graphics/SVG/1.1/DTD/svg11.dtd">
<svg version="1.1" id="Layer_1" xmlns="http://www.w3.org/2000/svg" xmlns:xlink="http://www.w3.org/1999/xlink" x="0px" y="0px"
	 width="439.516px" height="392.672px" viewBox="0 0 439.516 392.672" enable-background="new 0 0 439.516 392.672"
	 xml:space="preserve">
<g>
	<path fill="#546A7D" d="M111.937,96.581c12.239,2.58,24.243,5.094,36.239,7.642c27.007,5.735,54.003,11.523,81.031,17.161
		c2.005,0.419,4.318,0.162,6.329-0.379c15.254-4.107,30.461-8.389,45.696-12.566c14.451-3.962,26.009,1.799,28.651,16.473
		c2.171,12.049,8.201,16.025,19.585,18.096c30.098,5.472,59.932,12.392,89.867,18.751c0.928,0.196,1.819,0.561,3.032,0.94
		c-4.157,19.725-8.259,39.227-12.382,58.723c-2.101,9.926-4.166,19.858-6.379,29.761c-2.937,13.143-13.241,19.799-26.416,17.104
		c-8.146-1.667-16.264-3.481-24.401-5.19c-1.243-0.261-2.532-0.309-4.403-0.524c2.535,9.294,4.941,18.053,7.313,26.819
		c3.842,14.193-2.017,24.731-16.197,28.684c-87.944,24.504-175.9,48.974-263.867,73.399c-14.419,4.004-25.022-2.124-28.993-16.469
		C31.517,320.35,16.391,265.698,1.272,211.044c-4.094-14.799,1.776-25.266,16.44-29.346c25.152-6.997,50.279-14.092,75.486-20.886
		c3.96-1.066,5.624-2.979,6.399-6.848c3.565-17.773,7.368-35.5,11.11-53.239C110.974,99.462,111.439,98.239,111.937,96.581z
		 M36.706,274.026c0.359,1.76,0.523,2.905,0.83,4.014c8.481,30.619,16.965,61.24,25.482,91.852c1.678,6.03,2.704,6.559,8.959,4.817
		c87.347-24.295,174.692-48.599,262.037-72.906c6.014-1.674,6.598-2.738,4.896-8.923c-5.783-21.012-11.568-42.021-17.382-63.025
		c-2.961-10.704-5.979-21.392-9.088-32.497C220.369,222.957,128.754,248.431,36.706,274.026z M26.208,237.098
		c92.31-25.668,183.878-51.13,275.999-76.744c-2.825-10.198-5.504-19.938-8.223-29.665c-1.877-6.717-2.772-7.22-9.467-5.361
		c-56.072,15.565-112.146,31.14-168.218,46.712c-31.08,8.632-62.158,17.268-93.237,25.897c-3.492,0.97-7.103,1.85-5.734,6.853
		C20.218,215.353,23.132,225.911,26.208,237.098z M395.912,187.358c0.052-6.413-2.434-9.634-7.484-10.758
		c-9.722-2.161-19.474-4.188-29.23-6.179c-6.957-1.419-10.846,1.033-12.377,7.916c-2.127,9.559-4.131,19.146-6.082,28.742
		c-1.301,6.388,1.146,10.385,7.473,11.842c10.027,2.311,20.096,4.442,30.175,6.52c4.761,0.98,9.19-1.123,10.314-5.642
		C391.499,208.536,393.771,197.14,395.912,187.358z"/>
	<path fill="#546A7D" d="M434.193,115.352C330.294,93.323,227.057,71.433,123.239,49.421c2.049-12.093,3.347-23.855,6.177-35.237
		c2.561-10.302,13.317-15.939,24.007-13.694c53.212,11.181,106.404,22.455,159.601,33.717
		c35.463,7.508,70.908,15.096,106.383,22.549c15.834,3.327,22.219,12.589,19.504,28.412
		C437.225,94.981,435.824,104.844,434.193,115.352z"/>
	<path fill="#546A7D" d="M101.622,296.637c6.177-0.085,9.106,2.122,10.298,6.23c2.961,10.211,5.874,20.441,8.492,30.744
		c1.458,5.736-0.766,9.476-6.329,11.119c-10.036,2.968-20.115,5.802-30.229,8.493c-5.449,1.451-9.536-0.91-11.132-6.426
		c-2.956-10.213-5.71-20.484-8.487-30.748c-1.154-4.267,0.234-8.31,4.159-9.616C79.876,302.611,91.608,299.536,101.622,296.637z"/>
</g>
</svg>
